<svg data-name="Layer 1" height="796" id="e55d10ab-9d70-435f-9096-155c89cbb824" viewBox="0 0 930 796"
     width="930" xmlns="http://www.w3.org/2000/svg">
  <defs>
    <linearGradient gradientUnits="userSpaceOnUse" id="c2d4657d-812e-4d49-9faf-a52e325dd45c" x1="476.5" x2="476.5"
                    y1="796" y2="356">
      <stop offset="0" stop-color="gray" stop-opacity="0.25"/>
      <stop offset="0.54" stop-color="gray" stop-opacity="0.12"/>
      <stop offset="1" stop-color="gray" stop-opacity="0.1"/>
    </linearGradient>
    <linearGradient gradientUnits="userSpaceOnUse" id="c3547cc4-a187-4ba4-ab1a-9d4c07935ee4" x1="233" x2="233" y1="468"
                    y2="390">
      <stop offset="0" stop-color="#b3b3b3" stop-opacity="0.25"/>
      <stop offset="0.54" stop-color="#b3b3b3" stop-opacity="0.1"/>
      <stop offset="1" stop-color="#b3b3b3" stop-opacity="0.05"/>
    </linearGradient>
  </defs>
  <title>create</title>
  <path d="M827,414s28-104-28-211" fill="none" stroke="#e0e0e0" stroke-dasharray="0 23" stroke-linecap="round"
        stroke-linejoin="round" stroke-width="10" transform="translate(-135 -52)"/>
  <line fill="none" stroke="#e0e0e0" stroke-linecap="round" stroke-linejoin="round" stroke-width="10" x1="300.59"
        x2="300.59" y1="350.5" y2="350.5"/>
  <path d="M443.1,380.14c9.88-40.36,12.83-124.5-117.66-160.22" fill="none" stroke="#e0e0e0" stroke-dasharray="0 23.61"
        stroke-linecap="round" stroke-linejoin="round" stroke-width="10" transform="translate(-135 -52)"/>
  <line fill="none" stroke="#e0e0e0" stroke-linecap="round" stroke-linejoin="round" stroke-width="10" x1="179" x2="179"
        y1="165" y2="165"/>
  <rect fill="url(#c2d4657d-812e-4d49-9faf-a52e325dd45c)" height="440" width="811" x="71" y="356"/>
  <rect fill="#fff" height="422.5" width="798" x="78" y="362"/>
  <circle cx="233" cy="429" fill="url(#c3547cc4-a187-4ba4-ab1a-9d4c07935ee4)" r="39"/>
  <circle cx="233" cy="429" fill="#03a9f4" r="35"/>
  <rect fill="#bdbdbd" height="20" width="197" x="313" y="416"/>
  <rect fill="#e0e0e0" height="20" width="492" x="232.5" y="545.5"/>
  <rect fill="#e0e0e0" height="20" width="492" x="232.5" y="501.5"/>
  <rect fill="#e0e0e0" height="20" width="492" x="232.5" y="589.5"/>
  <rect fill="#e0e0e0" height="20" width="492" x="232.5" y="633.5"/>
  <rect fill="#e0e0e0" height="20" width="492" x="232.5" y="677.5"/>
  <rect fill="#e0e0e0" height="20" width="492" x="232.5" y="721.5"/>
  <line fill="none" stroke="#bdbdbd" stroke-linecap="round" stroke-linejoin="round" stroke-width="10" x1="153.33"
        x2="153.33" y1="355.5" y2="355.5"/>
  <path d="M290.59,384.75c.76-21.62-1.88-53.94-20.78-75.41" fill="none" stroke="#bdbdbd" stroke-dasharray="0 22.87"
        stroke-linecap="round" stroke-linejoin="round" stroke-width="10" transform="translate(-135 -52)"/>
  <line fill="none" stroke="#bdbdbd" stroke-linecap="round" stroke-linejoin="round" stroke-width="10" x1="126.5"
        x2="126.5" y1="249.5" y2="249.5"/>
  <line fill="none" stroke="#e0e0e0" stroke-linecap="round" stroke-linejoin="round" stroke-width="10" x1="605.33"
        x2="605.33" y1="364.5" y2="364.5"/>
  <path d="M742.59,393.75c.76-21.62-1.88-53.94-20.78-75.41" fill="none" stroke="#e0e0e0" stroke-dasharray="0 22.87"
        stroke-linecap="round" stroke-linejoin="round" stroke-width="10" transform="translate(-135 -52)"/>
  <line fill="none" stroke="#e0e0e0" stroke-linecap="round" stroke-linejoin="round" stroke-width="10" x1="578.5"
        x2="578.5" y1="258.5" y2="258.5"/>
  <line fill="none" stroke="#bdbdbd" stroke-linecap="round" stroke-linejoin="round" stroke-width="10" x1="797.67"
        x2="797.67" y1="355.5" y2="355.5"/>
  <path d="M930.41,384.75c-.76-21.62,1.88-53.94,20.78-75.41" fill="none" stroke="#bdbdbd" stroke-dasharray="0 22.87"
        stroke-linecap="round" stroke-linejoin="round" stroke-width="10" transform="translate(-135 -52)"/>
  <line fill="none" stroke="#bdbdbd" stroke-linecap="round" stroke-linejoin="round" stroke-width="10" x1="824.5"
        x2="824.5" y1="249.5" y2="249.5"/>
  <rect fill="#03a9f4" height="60.43" opacity="0.7" width="111" y="114.78"/>
  <rect fill="#03a9f4" height="60.43" opacity="0.7" width="111" x="608" y="73.78"/>
  <rect fill="#03a9f4" height="60.43" opacity="0.7" width="111" x="513" y="181.78"/>
  <rect fill="#03a9f4" height="98.41" width="180.78" x="83" y="127.58"/>
  <rect fill="#03a9f4" height="98.41" width="180.78" x="749.22" y="132.58"/>
  <rect fill="#03a9f4" height="98.41" width="180.78" x="339.71"/>
  <line fill="none" stroke="#bdbdbd" stroke-linecap="round" stroke-linejoin="round" stroke-width="10" x1="414" x2="414"
        y1="354.5" y2="354.5"/>
  <path d="M557.82,384.21c6.13-21.36,10.12-55.49-9.32-90.72-24-43.51-2.42-85.9,9.85-104.36" fill="none" stroke="#bdbdbd"
        stroke-dasharray="0 24.01" stroke-linecap="round" stroke-linejoin="round" stroke-width="10"
        transform="translate(-135 -52)"/>
  <line fill="none" stroke="#bdbdbd" stroke-linecap="round" stroke-linejoin="round" stroke-width="10" x1="430.5"
        x2="430.5" y1="127.5" y2="127.5"/>
</svg>
